<svg width="60" height="60" viewBox="0 0 16 16" fill="none" xmlns="http://www.w3.org/2000/svg">
  <path fill-rule="evenodd" clip-rule="evenodd" d="M8 0C3.58 0 0 3.58 0 8C0 11.54 2.29 14.63 5.47 15.73C5.87 15.79 6 15.54 6 15.32V13.82C3.87 14.32 3.38 13.19 3.38 13.19C3.06 12.36 2.53 12.14 2.53 12.14C1.78 11.66 2.59 11.67 2.59 11.67C3.41 11.72 3.84 12.48 3.84 12.48C4.57 13.71 5.75 13.39 6.22 13.19C6.29 12.66 6.48 12.3 6.69 12.08C4.88 11.86 2.98 11.15 2.98 7.97C2.98 7.05 3.32 6.31 3.89 5.72C3.79 5.5 3.49 4.63 3.99 3.48C3.99 3.48 4.7 3.25 6 4.17C6.66 3.99 7.34 3.91 8 3.91C8.66 3.91 9.34 3.99 10 4.17C11.3 3.25 12.01 3.48 12.01 3.48C12.51 4.63 12.21 5.5 12.11 5.72C12.68 6.31 13.02 7.05 13.02 7.97C13.02 11.16 11.12 11.85 9.31 12.07C9.58 12.31 9.81 12.78 9.81 13.5V15.32C9.81 15.54 9.94 15.79 10.34 15.73C13.61 14.62 16 11.53 16 8C16 3.58 12.42 0 8 0Z" fill="white"/>
</svg>
